Coordinates
version=1
nRows=13
nColumns=36
inDegrees=yes

Units are S.I. units (second, meters, Newtons, ...)
If the header above contains a line with 'inDegrees', this indicates whether rotational values are in degrees (yes) or radians (no).

endheader
time	pelvis_tilt	pelvis_list	pelvis_rotation	pelvis_tx	pelvis_ty	pelvis_tz	hip_flexion_r	hip_adduction_r	hip_rotation_r	knee_angle_r	knee_angle_r_beta	ankle_angle_r	subtalar_angle_r	mtp_angle_r	hip_flexion_l	hip_adduction_l	hip_rotation_l	knee_angle_l	knee_angle_l_beta	ankle_angle_l	subtalar_angle_l	mtp_angle_l	lumbar_extension	lumbar_bending	lumbar_rotation	arm_flex_r	arm_add_r	arm_rot_r	elbow_flex_r	pro_sup_r	arm_flex_l	arm_add_l	arm_rot_l	elbow_flex_l	pro_sup_l
      7.80000000	    -12.36540439	     16.36643309	      5.56300214	      0.87864426	      0.71691286	      0.12728527	     89.04478076	    -25.38209627	     16.23504364	     44.55480169	      0.77762799	     -2.58389683	     12.99950701	     -7.49999987	     64.54236359	     23.57782760	     -8.39597426	     81.63790788	      1.42485029	     34.22606522	     -1.27823323	     -7.49999987	    -33.69852012	    -14.81718253	    -21.11901336	     81.17492421	      6.09072576	     76.05567428	    104.63355947	     70.67320890	     99.87371657	    -19.62238757	     86.95937143	    128.89320538	     73.16584251
      7.81666670	    -12.49896864	     16.59910959	      5.67421313	      0.87803954	      0.71431226	      0.12725325	     89.59156178	    -25.39095732	     16.66319247	     44.82413936	      0.78232882	     -2.51333025	     12.94029363	     -7.49999987	     64.95347151	     23.67562341	     -8.75096884	     81.94754586	      1.43025449	     34.30610570	     -1.20842866	     -7.49999987	    -33.67910842	    -14.97182392	    -21.15805088	     81.32048620	      6.23784531	     75.81926831	    104.74450828	     70.19945930	     99.78895247	    -19.35028865	     86.45839519	    129.40422280	     72.44644484
      7.83333330	    -12.60244365	     16.77485726	      5.78637982	      0.87766175	      0.71402177	      0.12750041	     90.04797220	    -25.39753411	     17.02325253	     45.04858865	      0.78624620	     -2.47616357	     12.93259969	     -7.49999987	     65.28899448	     23.77951480	     -8.98446432	     82.22534840	      1.43510306	     34.38543687	     -1.13661661	     -7.49999987	    -33.74720874	    -15.14285386	    -21.40667288	     81.22498110	      6.18845018	     75.21349363	    103.89535038	     69.66372905	     99.69473764	    -19.35854159	     86.46878708	    129.35994824	     71.80444115
      7.85000000	    -12.70243044	     16.95240439	      5.91868614	      0.87309131	      0.71289902	      0.12930569	     90.46040306	    -25.40928531	     17.36363467	     45.26636700	      0.79004714	     -2.55317897	     12.75454862	     -7.49999987	     65.61456621	     23.84996015	     -9.23362072	     82.44221555	      1.43888810	     34.44339548	     -1.18877671	     -7.49999987	    -33.93873826	    -15.23024415	    -21.83825956	     81.52449927	      6.41725309	     73.82183637	    102.42247628	     76.14862009	    100.17777795	    -19.66379976	     85.91596111	    129.25037593	     78.44425033
      7.86666670	    -12.70788297	     17.08564478	      5.89704716	      0.87763074	      0.71582801	      0.12714218	     90.60117324	    -25.39399150	     17.50946072	     45.32588931	      0.79108600	     -2.53052218	     12.76407380	     -7.49999987	     65.67755511	     23.94480268	     -9.33055997	     82.55332537	      1.44082734	     34.56804164	     -1.09335332	     -7.49999987	    -34.01000426	    -15.32742070	    -21.71450101	     81.24571897	      6.25548263	     73.61247681	    101.75091901	     76.12617444	     99.44936573	    -19.46543915	     85.82423052	    129.03347992	     78.48477875
      7.88333330	    -12.81899088	     17.08685947	      5.98673950	      0.87310652	      0.71486271	      0.12895229	     90.77536344	    -25.37856182	     17.61041118	     45.35764000	      0.79164016	     -2.56421206	     12.74795480	     -7.49999987	     65.92648632	     23.90102210	     -9.45166162	     82.73157507	      1.44393838	     34.56891766	     -1.12087102	     -7.49999987	    -34.07246439	    -15.24071516	    -21.79800881	     81.72079561	      6.14057883	     73.26506751	    101.52528345	     76.10357834	     99.70613247	    -19.48656378	     85.56712144	    128.83502848	     78.47173246
      7.90000000	    -12.80132274	     17.21251859	      6.04370469	      0.87298823	      0.71750832	      0.12953695	     90.85725132	    -25.41715211	     17.72633822	     45.42699771	      0.79285068	     -2.56769046	     12.74924961	     -7.49999987	     65.96320728	     23.98983760	     -9.51271373	     82.72595680	      1.44384032	     34.53041969	     -1.08359886	     -7.49999987	    -34.22604731	    -15.32030156	    -21.86639874	     81.69249620	      6.15524498	     73.48385358	    101.10819415	     74.93211470	     99.51762174	    -19.53924601	     85.03746834	    128.12858084	     77.25293360
      7.91666670	    -12.90393819	     17.25494202	      6.01738690	      0.87303918	      0.71729706	      0.12938118	     91.05508826	    -25.33226483	     17.81867765	     45.52867986	      0.79462537	     -2.57708672	     12.69868047	     -7.49999987	     66.18187457	     23.94450769	     -9.57923172	     82.84591676	      1.44593402	     34.42528067	     -1.05641620	     -7.49999987	    -34.02332645	    -15.36943885	    -21.75949685	     81.75794990	      6.02876157	     74.16844749	    101.73632977	     73.33746394	     99.36698115	    -19.49983407	     84.69348921	    127.97021978	     75.50922694
      7.93333330	    -12.83268300	     17.36600518	      5.93737067	      0.87316771	      0.72233941	      0.12980694	     90.95950748	    -25.34199640	     17.81450693	     45.41565466	      0.79265271	     -2.64738038	     12.70316538	     -7.49999987	     66.06671125	     24.02473495	     -9.58863842	     82.72408283	      1.44380762	     34.28184106	     -1.11789209	     -7.49999987	    -34.02324361	    -15.43483294	    -21.81793300	     81.35816079	      6.03602643	     74.81473508	    102.10945794	     73.38038877	     99.15093034	    -19.82806087	     85.03838872	    127.84567205	     75.58632248
      7.95000000	    -12.80619986	     17.44242866	      5.91536107	      0.87319858	      0.72450761	      0.12926052	     90.89376133	    -25.43351863	     17.76588394	     45.20395819	      0.78895791	     -2.75719253	     12.93504851	     -7.49999987	     65.99596494	     24.17129242	     -9.55866597	     82.54252156	      1.44063877	     33.89798357	     -1.38400120	     -7.49999987	    -33.83474521	    -15.40141501	    -21.56798555	     81.70109483	      6.00302915	     76.29837943	    103.29314822	     72.33275690	     98.99439606	    -19.73037472	     85.27258338	    127.55555654	     74.44241867
      7.96666670	    -12.62074134	     17.55146003	      5.80273989	      0.87316296	      0.72489952	      0.12957677	     90.71679918	    -25.49118887	     17.74432273	     45.02447993	      0.78582542	     -2.78167062	     13.24443838	     -7.49999987	     65.76120020	     24.36381897	     -9.47451409	     82.30991008	      1.43657894	     33.43951401	     -1.81862660	     -7.49999987	    -33.80939942	    -15.56516176	    -21.79027631	     82.21185871	      6.12348230	     76.95981662	    104.57304285	     70.35157758	    100.12410476	    -19.68411172	     85.78810972	    127.55595330	     72.59276723
      7.98333330	    -12.48329146	     17.55850173	      5.62705601	      0.87299725	      0.72721817	      0.12967456	     90.50902486	    -25.49105347	     17.62714638	     44.82693687	      0.78237764	     -2.88143238	     13.45715900	     -7.49999987	     65.55078207	     24.49180772	     -9.29727907	     82.11909417	      1.43324857	     33.15740045	     -2.05226570	     -7.49999987	    -33.54845193	    -15.62844635	    -21.91427891	     82.71600529	      5.90079848	     76.40930503	    104.42674698	     69.62834761	    100.64313079	    -19.83692523	     85.85110312	    127.45625861	     71.93184815
      8.00000000	    -12.19600198	     17.58126825	      5.40085434	      0.87309367	      0.73247122	      0.12996960	     90.05239738	    -25.50532003	     17.44440289	     44.47319515	      0.77620368	     -3.14513429	     13.65280454	     -7.49999987	     65.08989983	     24.65747143	     -9.07420940	     81.76367042	      1.42704526	     32.71638774	     -2.56319675	     -7.49999987	    -33.53136855	    -15.72706471	    -21.80806864	     82.92563209	      5.61663447	     75.32461514	    103.54269405	     69.76508655	    101.25773160	    -19.88301430	     86.16754579	    127.97486645	     72.39679839
